<mxfile host="app.diagrams.net" modified="2024-03-25T13:39:03.393Z" agent="Mozilla/5.0 (Windows NT 10.0; Win64; x64; rv:124.0) Gecko/20100101 Firefox/124.0" etag="PU-iEnWzVbo_ub2Yz0DW" version="24.0.7" type="device">
  <diagram id="C5RBs43oDa-KdzZeNtuy" name="Page-1">
    <mxGraphModel dx="819" dy="1616" grid="1" gridSize="10" guides="1" tooltips="1" connect="1" arrows="1" fold="1" page="1" pageScale="1" pageWidth="827" pageHeight="1169" math="0" shadow="0">
      <root>
        <mxCell id="WIyWlLk6GJQsqaUBKTNV-0" />
        <mxCell id="WIyWlLk6GJQsqaUBKTNV-1" parent="WIyWlLk6GJQsqaUBKTNV-0" />
        <mxCell id="-gnc18n2pd0LGO67LdCI-12" value="" style="group;fontFamily=Verdana;" vertex="1" connectable="0" parent="WIyWlLk6GJQsqaUBKTNV-1">
          <mxGeometry x="480" y="160" width="220" height="280" as="geometry" />
        </mxCell>
        <mxCell id="-gnc18n2pd0LGO67LdCI-6" value="" style="rounded=0;whiteSpace=wrap;html=1;fillColor=#f5f5f5;fontColor=#333333;strokeColor=#666666;" vertex="1" parent="-gnc18n2pd0LGO67LdCI-12">
          <mxGeometry width="220.00000000000003" height="40" as="geometry" />
        </mxCell>
        <mxCell id="-gnc18n2pd0LGO67LdCI-7" value="" style="rounded=0;whiteSpace=wrap;html=1;" vertex="1" parent="-gnc18n2pd0LGO67LdCI-12">
          <mxGeometry x="44" y="40" width="176" height="40" as="geometry" />
        </mxCell>
        <mxCell id="-gnc18n2pd0LGO67LdCI-8" value="" style="rounded=0;whiteSpace=wrap;html=1;" vertex="1" parent="-gnc18n2pd0LGO67LdCI-12">
          <mxGeometry y="40" width="44" height="40" as="geometry" />
        </mxCell>
        <mxCell id="-gnc18n2pd0LGO67LdCI-9" value="" style="rounded=0;whiteSpace=wrap;html=1;" vertex="1" parent="-gnc18n2pd0LGO67LdCI-12">
          <mxGeometry y="80" width="44" height="200" as="geometry" />
        </mxCell>
        <mxCell id="-gnc18n2pd0LGO67LdCI-10" value="" style="rounded=0;whiteSpace=wrap;html=1;" vertex="1" parent="-gnc18n2pd0LGO67LdCI-12">
          <mxGeometry x="44" y="80" width="176" height="200" as="geometry" />
        </mxCell>
        <mxCell id="-gnc18n2pd0LGO67LdCI-11" value="&lt;b&gt;PK&lt;/b&gt;" style="text;strokeColor=none;align=center;fillColor=none;html=1;verticalAlign=middle;whiteSpace=wrap;rounded=0;" vertex="1" parent="-gnc18n2pd0LGO67LdCI-12">
          <mxGeometry y="40" width="44" height="40" as="geometry" />
        </mxCell>
        <mxCell id="-gnc18n2pd0LGO67LdCI-15" value="&lt;b&gt;id_tournament&lt;/b&gt;" style="text;strokeColor=none;align=left;fillColor=none;html=1;verticalAlign=middle;whiteSpace=wrap;rounded=0;" vertex="1" parent="-gnc18n2pd0LGO67LdCI-12">
          <mxGeometry x="55.00000000000001" y="45" width="110.00000000000001" height="30" as="geometry" />
        </mxCell>
        <mxCell id="-gnc18n2pd0LGO67LdCI-16" value="uniqueName NN" style="text;strokeColor=none;align=left;fillColor=none;html=1;verticalAlign=middle;whiteSpace=wrap;rounded=0;fontFamily=Verdana;" vertex="1" parent="-gnc18n2pd0LGO67LdCI-12">
          <mxGeometry x="55.00000000000001" y="90" width="121.00000000000001" height="30" as="geometry" />
        </mxCell>
        <mxCell id="-gnc18n2pd0LGO67LdCI-17" value="&lt;div align=&quot;left&quot;&gt;date NN&lt;/div&gt;" style="text;strokeColor=none;align=left;fillColor=none;html=1;verticalAlign=middle;whiteSpace=wrap;rounded=0;fontFamily=Verdana;" vertex="1" parent="-gnc18n2pd0LGO67LdCI-12">
          <mxGeometry x="55.00000000000001" y="120" width="110.00000000000001" height="30" as="geometry" />
        </mxCell>
        <mxCell id="-gnc18n2pd0LGO67LdCI-18" value="coach (FK) NN" style="text;strokeColor=none;align=left;fillColor=none;html=1;verticalAlign=middle;whiteSpace=wrap;rounded=0;fontFamily=Verdana;" vertex="1" parent="-gnc18n2pd0LGO67LdCI-12">
          <mxGeometry x="55.00000000000001" y="150" width="110.00000000000001" height="30" as="geometry" />
        </mxCell>
        <mxCell id="-gnc18n2pd0LGO67LdCI-14" value="&lt;b&gt;proj.tournaments&lt;/b&gt;" style="text;strokeColor=none;align=center;fillColor=none;html=1;verticalAlign=middle;whiteSpace=wrap;rounded=0;" vertex="1" parent="-gnc18n2pd0LGO67LdCI-12">
          <mxGeometry width="220.00000000000003" height="40" as="geometry" />
        </mxCell>
        <mxCell id="-gnc18n2pd0LGO67LdCI-22" value="banner NN" style="text;strokeColor=none;align=left;fillColor=none;html=1;verticalAlign=middle;whiteSpace=wrap;rounded=0;fontFamily=Verdana;" vertex="1" parent="-gnc18n2pd0LGO67LdCI-12">
          <mxGeometry x="55.00000000000001" y="180" width="110.00000000000001" height="30" as="geometry" />
        </mxCell>
        <mxCell id="-gnc18n2pd0LGO67LdCI-23" value="currentNbParticipant NN" style="text;strokeColor=none;align=left;fillColor=none;html=1;verticalAlign=middle;whiteSpace=wrap;rounded=0;fontFamily=Verdana;" vertex="1" parent="-gnc18n2pd0LGO67LdCI-12">
          <mxGeometry x="55.00000000000001" y="210" width="154" height="30" as="geometry" />
        </mxCell>
        <mxCell id="-gnc18n2pd0LGO67LdCI-24" value="maxNbParticipant NN" style="text;strokeColor=none;align=left;fillColor=none;html=1;verticalAlign=middle;whiteSpace=wrap;rounded=0;fontFamily=Verdana;" vertex="1" parent="-gnc18n2pd0LGO67LdCI-12">
          <mxGeometry x="55.00000000000001" y="240" width="154" height="30" as="geometry" />
        </mxCell>
        <mxCell id="-gnc18n2pd0LGO67LdCI-42" value="" style="triangle;whiteSpace=wrap;html=1;rotation=-180;" vertex="1" parent="-gnc18n2pd0LGO67LdCI-12">
          <mxGeometry x="-16.5" y="157" width="16.5" height="20" as="geometry" />
        </mxCell>
        <mxCell id="-gnc18n2pd0LGO67LdCI-41" value="" style="endArrow=none;html=1;rounded=0;exitX=-0.003;exitY=0.435;exitDx=0;exitDy=0;exitPerimeter=0;" edge="1" parent="WIyWlLk6GJQsqaUBKTNV-1" source="-gnc18n2pd0LGO67LdCI-9">
          <mxGeometry width="50" height="50" relative="1" as="geometry">
            <mxPoint x="290" y="360" as="sourcePoint" />
            <mxPoint x="260" y="280" as="targetPoint" />
            <Array as="points">
              <mxPoint x="260" y="327" />
            </Array>
          </mxGeometry>
        </mxCell>
        <mxCell id="-gnc18n2pd0LGO67LdCI-25" value="" style="group" vertex="1" connectable="0" parent="WIyWlLk6GJQsqaUBKTNV-1">
          <mxGeometry x="160" width="200" height="290" as="geometry" />
        </mxCell>
        <mxCell id="-gnc18n2pd0LGO67LdCI-45" value="" style="ellipse;whiteSpace=wrap;html=1;" vertex="1" parent="-gnc18n2pd0LGO67LdCI-25">
          <mxGeometry x="94.44999999999999" y="275" width="11.11" height="10" as="geometry" />
        </mxCell>
        <mxCell id="-gnc18n2pd0LGO67LdCI-51" value="" style="group" vertex="1" connectable="0" parent="-gnc18n2pd0LGO67LdCI-25">
          <mxGeometry width="200" height="280" as="geometry" />
        </mxCell>
        <mxCell id="-gnc18n2pd0LGO67LdCI-29" value="" style="rounded=0;whiteSpace=wrap;html=1;" vertex="1" parent="-gnc18n2pd0LGO67LdCI-51">
          <mxGeometry width="40" height="280" as="geometry" />
        </mxCell>
        <mxCell id="-gnc18n2pd0LGO67LdCI-30" value="" style="rounded=0;whiteSpace=wrap;html=1;" vertex="1" parent="-gnc18n2pd0LGO67LdCI-51">
          <mxGeometry x="40" width="160" height="280" as="geometry" />
        </mxCell>
        <mxCell id="-gnc18n2pd0LGO67LdCI-33" value="&lt;font face=&quot;Verdana&quot;&gt;name &lt;/font&gt;NN" style="text;strokeColor=none;align=left;fillColor=none;html=1;verticalAlign=middle;whiteSpace=wrap;rounded=0;" vertex="1" parent="-gnc18n2pd0LGO67LdCI-51">
          <mxGeometry x="50" y="10" width="100" height="30" as="geometry" />
        </mxCell>
        <mxCell id="-gnc18n2pd0LGO67LdCI-34" value="&lt;div align=&quot;left&quot;&gt;&lt;font face=&quot;Verdana&quot;&gt;surname NN&lt;/font&gt;&lt;/div&gt;" style="text;strokeColor=none;align=left;fillColor=none;html=1;verticalAlign=middle;whiteSpace=wrap;rounded=0;" vertex="1" parent="-gnc18n2pd0LGO67LdCI-51">
          <mxGeometry x="50" y="40" width="100" height="30" as="geometry" />
        </mxCell>
        <mxCell id="-gnc18n2pd0LGO67LdCI-35" value="isCoach " style="text;strokeColor=none;align=left;fillColor=none;html=1;verticalAlign=middle;whiteSpace=wrap;rounded=0;fontFamily=Verdana;" vertex="1" parent="-gnc18n2pd0LGO67LdCI-51">
          <mxGeometry x="50" y="130" width="100" height="30" as="geometry" />
        </mxCell>
        <mxCell id="-gnc18n2pd0LGO67LdCI-37" value="pictureName " style="text;strokeColor=none;align=left;fillColor=none;html=1;verticalAlign=middle;whiteSpace=wrap;rounded=0;fontFamily=Verdana;" vertex="1" parent="-gnc18n2pd0LGO67LdCI-51">
          <mxGeometry x="50" y="160" width="110" height="30" as="geometry" />
        </mxCell>
        <mxCell id="-gnc18n2pd0LGO67LdCI-38" value="bio " style="text;strokeColor=none;align=left;fillColor=none;html=1;verticalAlign=middle;whiteSpace=wrap;rounded=0;fontFamily=Verdana;" vertex="1" parent="-gnc18n2pd0LGO67LdCI-51">
          <mxGeometry x="50" y="190" width="140" height="30" as="geometry" />
        </mxCell>
        <mxCell id="-gnc18n2pd0LGO67LdCI-39" value="maxNbParticipant NN" style="text;strokeColor=none;align=left;fillColor=none;html=1;verticalAlign=middle;whiteSpace=wrap;rounded=0;fontFamily=Verdana;" vertex="1" parent="-gnc18n2pd0LGO67LdCI-51">
          <mxGeometry x="50" y="220" width="140" height="30" as="geometry" />
        </mxCell>
        <mxCell id="-gnc18n2pd0LGO67LdCI-48" value="&lt;font face=&quot;Verdana&quot;&gt;email &lt;/font&gt;NN UNIQUE" style="text;strokeColor=none;align=left;fillColor=none;html=1;verticalAlign=middle;whiteSpace=wrap;rounded=0;" vertex="1" parent="-gnc18n2pd0LGO67LdCI-51">
          <mxGeometry x="50" y="70" width="130" height="30" as="geometry" />
        </mxCell>
        <mxCell id="-gnc18n2pd0LGO67LdCI-49" value="&lt;div align=&quot;left&quot;&gt;&lt;font face=&quot;Verdana&quot;&gt;password NN&lt;/font&gt;&lt;/div&gt;" style="text;strokeColor=none;align=left;fillColor=none;html=1;verticalAlign=middle;whiteSpace=wrap;rounded=0;" vertex="1" parent="-gnc18n2pd0LGO67LdCI-51">
          <mxGeometry x="50" y="100" width="100" height="30" as="geometry" />
        </mxCell>
        <mxCell id="-gnc18n2pd0LGO67LdCI-46" value="" style="ellipse;whiteSpace=wrap;html=1;" vertex="1" parent="WIyWlLk6GJQsqaUBKTNV-1">
          <mxGeometry x="454" y="322" width="11.11" height="10" as="geometry" />
        </mxCell>
        <mxCell id="-gnc18n2pd0LGO67LdCI-26" value="" style="rounded=0;whiteSpace=wrap;html=1;fillColor=#f5f5f5;fontColor=#333333;strokeColor=#666666;" vertex="1" parent="WIyWlLk6GJQsqaUBKTNV-1">
          <mxGeometry x="160" y="-80" width="200" height="40" as="geometry" />
        </mxCell>
        <mxCell id="-gnc18n2pd0LGO67LdCI-36" value="proj.users" style="text;strokeColor=none;align=center;fillColor=none;html=1;verticalAlign=middle;whiteSpace=wrap;rounded=0;" vertex="1" parent="WIyWlLk6GJQsqaUBKTNV-1">
          <mxGeometry x="160" y="-80" width="200" height="40" as="geometry" />
        </mxCell>
        <mxCell id="-gnc18n2pd0LGO67LdCI-27" value="" style="rounded=0;whiteSpace=wrap;html=1;" vertex="1" parent="WIyWlLk6GJQsqaUBKTNV-1">
          <mxGeometry x="200" y="-40" width="160" height="40" as="geometry" />
        </mxCell>
        <mxCell id="-gnc18n2pd0LGO67LdCI-32" value="&lt;b&gt;id_user&lt;/b&gt;" style="text;strokeColor=none;align=left;fillColor=none;html=1;verticalAlign=middle;whiteSpace=wrap;rounded=0;" vertex="1" parent="WIyWlLk6GJQsqaUBKTNV-1">
          <mxGeometry x="210" y="-35" width="100" height="30" as="geometry" />
        </mxCell>
        <mxCell id="-gnc18n2pd0LGO67LdCI-28" value="" style="rounded=0;whiteSpace=wrap;html=1;" vertex="1" parent="WIyWlLk6GJQsqaUBKTNV-1">
          <mxGeometry x="160" y="-40" width="40" height="40" as="geometry" />
        </mxCell>
        <mxCell id="-gnc18n2pd0LGO67LdCI-31" value="&lt;b&gt;PK&lt;/b&gt;" style="text;strokeColor=none;align=center;fillColor=none;html=1;verticalAlign=middle;whiteSpace=wrap;rounded=0;" vertex="1" parent="WIyWlLk6GJQsqaUBKTNV-1">
          <mxGeometry x="160" y="-40" width="40" height="40" as="geometry" />
        </mxCell>
      </root>
    </mxGraphModel>
  </diagram>
</mxfile>
